<svg width="128" height="128" viewBox="0 0 128 128" fill="none" xmlns="http://www.w3.org/2000/svg">
<path fill-rule="evenodd" clip-rule="evenodd" d="M0 64C0 28.6537 28.6537 0 64 0C99.3463 0 128 28.6537 128 64C128 99.3463 99.3463 128 64 128C28.6537 128 0 99.3463 0 64Z" fill="#EE1C25"/>
<path fill-rule="evenodd" clip-rule="evenodd" d="M108.752 51.97L81.1397 72.2043L91.6582 104.902L63.9991 84.7334L36.3409 104.902L46.8601 72.2035L19.248 51.97H108.752Z" fill="#fce9d8"/>
<path fill-rule="evenodd" clip-rule="evenodd" d="M52.9326 34.1649C52.9326 28.0525 57.8881 23.0977 64.0003 23.0977C70.1125 23.0977 75.068 28.0525 75.068 34.1649C75.068 40.2782 70.1125 45.233 64.0003 45.233C57.8881 45.233 52.9326 40.2782 52.9326 34.1649Z" fill="#fce9d8"/>
</svg>
