<svg width="800" height="800" viewBox="0 0 800 800" fill="none" xmlns="http://www.w3.org/2000/svg">
<g filter="url(#filter0_d_150_1647)">
<path fill-rule="evenodd" clip-rule="evenodd" d="M100 396C100 230.314 234.314 96 400 96C565.686 96 700 230.314 700 396C700 561.686 565.686 696 400 696C234.314 696 100 561.686 100 396Z" fill="#EE1C25"/>
<path fill-rule="evenodd" clip-rule="evenodd" d="M609.773 339.609L480.342 434.457L529.647 587.73L399.995 493.188L270.347 587.73L319.656 434.454L190.225 339.609H609.773Z" fill="white"/>
<path fill-rule="evenodd" clip-rule="evenodd" d="M348.12 256.148C348.12 227.496 371.349 204.27 400 204.27C428.651 204.27 451.88 227.496 451.88 256.148C451.88 284.804 428.651 308.03 400 308.03C371.349 308.03 348.12 284.804 348.12 256.148Z" fill="white"/>
</g>
<defs>
<filter id="filter0_d_150_1647" x="0" y="0" width="800" height="800" filterUnits="userSpaceOnUse" color-interpolation-filters="sRGB">
<feFlood flood-opacity="0" result="BackgroundImageFix"/>
<feColorMatrix in="SourceAlpha" type="matrix" values="0 0 0 0 0 0 0 0 0 0 0 0 0 0 0 0 0 0 127 0" result="hardAlpha"/>
<feOffset dy="4"/>
<feGaussianBlur stdDeviation="50"/>
<feComposite in2="hardAlpha" operator="out"/>
<feColorMatrix type="matrix" values="0 0 0 0 0 0 0 0 0 0 0 0 0 0 0 0 0 0 0.25 0"/>
<feBlend mode="normal" in2="BackgroundImageFix" result="effect1_dropShadow_150_1647"/>
<feBlend mode="normal" in="SourceGraphic" in2="effect1_dropShadow_150_1647" result="shape"/>
</filter>
</defs>
</svg>
